<svg width="512" height="512" viewBox="0 0 512 512" fill="none" xmlns="http://www.w3.org/2000/svg">
<g style="mix-blend-mode:luminosity" opacity="0.6">
<path d="M437.677 45.419H355.096C325.161 57.29 318.525 37.161 256 37.161C193.475 37.161 186.839 57.29 156.903 45.419H74.323L63.312 252.904C70.194 334.452 120.774 378.839 160.689 395.011H351.312C391.226 378.839 441.807 334.452 448.689 252.904L437.677 45.419Z" fill="#F5DCB4"/>
<path d="M355.097 45.419C448.078 73.25 397.46 216.774 457.33 278.813C465.925 287.719 481.111 283.763 484.698 271.918C489.438 256.267 494.172 231.507 493.419 196.129C492.387 147.613 512 144.517 512 144.517C512 144.517 487.226 28.903 412.903 28.903C388.129 28.903 355.097 45.419 355.097 45.419Z" fill="#965A50"/>
<path d="M169.29 260.129C153.393 260.129 140.387 247.123 140.387 231.226V214.71C140.387 198.813 153.393 185.807 169.29 185.807C185.187 185.807 198.193 198.813 198.193 214.71V231.226C198.194 247.124 185.187 260.129 169.29 260.129Z" fill="#4B3F4E"/>
<path d="M169.29 185.806C167.877 185.806 166.521 186.027 165.161 186.225V227.096C165.161 236.217 172.556 243.612 181.677 243.612C190.799 243.612 198.193 236.217 198.193 227.096V214.71C198.194 198.814 185.187 185.806 169.29 185.806Z" fill="#5D5360"/>
<path d="M169.29 218.838C176.131 218.838 181.677 213.292 181.677 206.451C181.677 199.61 176.131 194.064 169.29 194.064C162.449 194.064 156.903 199.61 156.903 206.451C156.903 213.292 162.449 218.838 169.29 218.838Z" fill="white"/>
<path d="M342.71 260.129C326.813 260.129 313.807 247.123 313.807 231.226V214.71C313.807 198.813 326.813 185.807 342.71 185.807C358.607 185.807 371.613 198.813 371.613 214.71V231.226C371.613 247.124 358.606 260.129 342.71 260.129Z" fill="#4B3F4E"/>
<path d="M342.71 185.806C341.297 185.806 339.941 186.027 338.581 186.225V227.096C338.581 236.217 345.976 243.612 355.097 243.612C364.219 243.612 371.613 236.217 371.613 227.096V214.71C371.613 198.814 358.606 185.806 342.71 185.806Z" fill="#5D5360"/>
<path d="M342.71 218.838C349.551 218.838 355.097 213.292 355.097 206.451C355.097 199.61 349.551 194.064 342.71 194.064C335.869 194.064 330.323 199.61 330.323 206.451C330.323 213.292 335.869 218.838 342.71 218.838Z" fill="white"/>
<path d="M457.33 278.814C465.925 287.72 481.111 283.764 484.698 271.918C487.416 262.942 490.097 250.858 491.778 235.605C475.544 227.513 461.686 201.695 453.161 157.936C437.677 78.4519 416 34.0649 355.097 45.4189C448.078 73.2499 397.46 216.775 457.33 278.814Z" fill="#824641"/>
<path d="M160.689 395.011H199.83C199.83 395.011 131.098 348.904 119.743 267.355C97.654 108.712 139.7 61.2469 176.067 49.1349C170.306 49.3299 164.322 48.3609 156.904 45.4199H74.323L63.312 252.904C70.194 334.452 120.774 378.839 160.689 395.011Z" fill="#E7C9A5"/>
<path d="M156.903 45.419C63.922 73.25 114.541 216.775 54.67 278.813C46.075 287.719 30.889 283.763 27.302 271.918C22.562 256.267 17.828 231.507 18.581 196.129C19.613 147.613 0 144.517 0 144.517C0 144.517 24.774 28.903 99.097 28.903C123.871 28.903 156.903 45.419 156.903 45.419Z" fill="#965A50"/>
<path d="M154.139 44.104C145.759 40.216 119.623 28.903 99.097 28.903C24.774 28.903 0 144.517 0 144.517C0 144.517 19.613 147.614 18.581 196.13C18.567 196.778 18.586 197.361 18.576 198.002C66.097 17.715 139.119 37.773 154.139 44.104Z" fill="#824641"/>
<path d="M256 466.58C306.169 466.58 346.84 437.004 346.84 400.52C346.84 364.036 306.169 334.46 256 334.46C205.83 334.46 165.16 364.036 165.16 400.52C165.16 437.004 205.83 466.58 256 466.58Z" fill="#BC8E78"/>
<path d="M214.71 400.516V441.806C214.71 464.61 233.196 483.096 256 483.096C278.804 483.096 297.29 464.61 297.29 441.806V400.516H214.71Z" fill="#FF8087"/>
<path d="M214.71 432.768C226.651 431.272 237.918 427.639 247.742 422.146V433.548C247.742 438.108 251.44 441.806 256 441.806C260.56 441.806 264.258 438.108 264.258 433.548V422.041C273.987 427.593 285.284 431.266 297.29 432.771V400.515H214.71V432.768V432.768Z" fill="#E6646E"/>
<path d="M309.677 326.194H202.323C168.117 326.194 140.388 346.529 140.388 371.613C140.388 396.697 168.118 417.032 202.323 417.032C219.548 417.032 235.105 411.863 246.318 403.534C249.157 401.426 252.58 400.372 255.997 400.372C259.42 400.372 262.843 401.425 265.682 403.534C276.895 411.863 292.452 417.032 309.677 417.032C343.883 417.032 371.612 396.697 371.612 371.613C371.613 346.529 343.883 326.194 309.677 326.194Z" fill="#D4AF91"/>
<path d="M256 293.161C283.365 293.161 305.548 307.95 305.548 326.193C305.548 343.787 284.724 353.051 269.695 359.901C260.983 363.872 251.015 363.872 242.303 359.901C227.274 353.051 206.45 343.787 206.45 326.193C206.452 307.951 228.635 293.161 256 293.161Z" fill="#5D5360"/>
<path d="M230.968 317.161C229.813 306.768 237.134 295.654 237.134 295.654C219.131 300.603 206.452 312.405 206.452 326.193C206.452 343.786 227.276 353.05 242.305 359.901C251.016 363.871 260.985 363.871 269.697 359.901C272.929 358.428 276.429 356.832 279.932 355.077C259.613 351.484 233.29 338.065 230.968 317.161Z" fill="#4B3F4E"/>
</g>
<g clip-path="url(#clip0)">
<path d="M437.676 45.4189H355.097C325.161 57.2898 318.525 37.1609 256 37.1609C193.475 37.1609 186.839 57.2898 156.903 45.4189H74.323L63.312 252.903C70.1939 334.452 120.774 378.839 160.689 395.01H351.311C391.227 378.839 441.806 334.452 448.689 252.903L437.676 45.4189Z" fill="#F5DCB4"/>
<path d="M169.29 260.13C153.393 260.13 140.387 247.124 140.387 231.226V214.71C140.387 198.813 153.393 185.807 169.29 185.807C185.187 185.807 198.193 198.813 198.193 214.71V231.226C198.194 247.124 185.187 260.13 169.29 260.13Z" fill="#4B3F4E"/>
<path d="M169.29 185.806C167.877 185.806 166.521 186.027 165.161 186.225V227.096C165.161 236.217 172.556 243.612 181.677 243.612C190.799 243.612 198.193 236.217 198.193 227.096V214.71C198.194 198.814 185.187 185.806 169.29 185.806Z" fill="#5D5360"/>
<path d="M169.29 218.838C176.131 218.838 181.677 213.292 181.677 206.451C181.677 199.61 176.131 194.064 169.29 194.064C162.449 194.064 156.903 199.61 156.903 206.451C156.903 213.292 162.449 218.838 169.29 218.838Z" fill="white"/>
<path d="M160.689 395.01H199.83C199.83 395.01 131.098 348.903 119.743 267.355C97.6541 108.712 139.7 61.2469 176.067 49.1349C170.306 49.33 164.322 48.361 156.904 45.42H74.323L63.312 252.903C70.1939 334.451 120.774 378.839 160.689 395.01Z" fill="#E7C9A5"/>
<path d="M156.903 45.4188C63.9221 73.2499 114.541 216.775 54.67 278.813C46.075 287.719 30.889 283.763 27.3021 271.917C22.562 256.267 17.828 231.507 18.581 196.129C19.613 147.613 0 144.517 0 144.517C0 144.517 24.774 28.9028 99.0969 28.9028C123.871 28.9028 156.903 45.4188 156.903 45.4188Z" fill="#965A50"/>
<path d="M154.139 44.104C145.759 40.2159 119.623 28.9028 99.0969 28.9028C24.774 28.9028 0 144.517 0 144.517C0 144.517 19.613 147.614 18.581 196.13C18.567 196.778 18.586 197.361 18.576 198.002C66.0969 17.7148 139.119 37.7728 154.139 44.104Z" fill="#824641"/>
<path d="M256 466.579C306.169 466.579 346.839 437.003 346.839 400.52C346.839 364.036 306.169 334.46 256 334.46C205.83 334.46 165.16 364.036 165.16 400.52C165.16 437.003 205.83 466.579 256 466.579Z" fill="#BC8E78"/>
<path d="M214.71 400.515V441.806C214.71 464.61 233.196 483.097 256 483.097C278.804 483.097 297.291 464.61 297.291 441.806V400.515H214.71Z" fill="#FF8087"/>
<path d="M214.71 432.767C226.651 431.271 237.917 427.638 247.742 422.146V433.548C247.742 438.109 251.44 441.806 256 441.806C260.56 441.806 264.258 438.109 264.258 433.548V422.042C273.988 427.592 285.284 431.265 297.291 432.771V400.515H214.71V432.767Z" fill="#E6646E"/>
<path d="M309.676 326.194H202.323C168.117 326.194 140.388 346.529 140.388 371.612C140.388 396.698 168.118 417.033 202.323 417.033C219.548 417.033 235.105 411.863 246.317 403.533C249.156 401.426 252.579 400.373 255.998 400.373C259.421 400.373 262.844 401.426 265.683 403.533C276.895 411.863 292.452 417.033 309.676 417.033C343.883 417.033 371.612 396.698 371.612 371.612C371.612 346.529 343.883 326.194 309.676 326.194Z" fill="#D4AF91"/>
<path d="M256 293.161C283.365 293.161 305.548 307.95 305.548 326.194C305.548 343.787 284.724 353.051 269.695 359.902C260.982 363.871 251.016 363.871 242.303 359.902C227.274 353.051 206.45 343.787 206.45 326.194C206.452 307.95 228.635 293.161 256 293.161Z" fill="#5D5360"/>
<path d="M230.969 317.161C229.813 306.767 237.133 295.655 237.133 295.655C219.131 300.603 206.452 312.406 206.452 326.194C206.452 343.785 227.276 353.049 242.305 359.902C251.016 363.871 260.984 363.871 269.697 359.902C272.93 358.427 276.43 356.832 279.932 355.077C259.613 351.483 233.291 338.065 230.969 317.161Z" fill="#4B3F4E"/>
</g>
<path d="M306.973 326.23L257.133 362.478V300.177L306.973 244.673M306.973 326.23L370.407 244.673M306.973 326.23L263.929 300.177M306.973 326.23L475.752 272.991M370.407 244.673V186.903L339.823 164.248M370.407 244.673H306.973M339.823 164.248L306.973 186.903M339.823 164.248H423.646M306.973 186.903V244.673M306.973 186.903C297.005 186.903 269.593 186.903 257.133 186.903V35.1151L350.018 45.3098M350.018 45.3098L423.646 35.1151L433.076 45.3098M350.018 45.3098L423.646 164.248M350.018 45.3098L507.469 125.735M507.469 125.735L475.752 272.991M507.469 125.735L423.646 164.248M507.469 125.735L433.076 45.3098M475.752 272.991L423.646 164.248M475.752 272.991L350.018 396.46M423.646 164.248L433.076 45.3098M257.133 408.92V480.283L350.018 408.92H257.133Z" stroke="#3CFF67" stroke-width="0.5" stroke-dasharray="20 5"/>
<defs>
<clipPath id="clip0">
<rect width="256" height="493.876" fill="white" transform="translate(0 11.3274)"/>
</clipPath>
</defs>
</svg>
